<svg width="107" height="107" viewBox="0 0 107 107" fill="none" xmlns="http://www.w3.org/2000/svg">
<g clip-path="url(#clip0_202_208)">
<path d="M106.1 29.4001C106.1 28.3001 106.1 27.3001 106.1 26.2001C106 23.9001 105.9 21.5001 105.5 19.2001C105.1 16.9001 104.4 14.7001 103.3 12.6001C102.2 10.5001 100.9 8.60009 99.2 7.00009C97.5 5.30009 95.6 4.00009 93.6 2.90009C91.5 1.80009 89.3 1.1001 87 0.700104C84.7 0.300104 82.4 0.100098 80 0.100098C78.9 0.100098 77.9 0.100098 76.8 0.100098C75.5 0.100098 74.3 0.100098 73 0.100098H44.8999H33.3C32 0.100098 30.8 0.100098 29.5 0.100098C28.4 0.100098 27.4 0.100098 26.3 0.100098C25.7 0.100098 25.1 0.100104 24.6 0.200104C22.9 0.300104 21.0999 0.400104 19.3999 0.700104C17.6999 1.0001 15.9999 1.5001 14.3999 2.1001C13.8999 2.3001 13.3 2.60011 12.8 2.80011C11.2 3.60011 9.79995 4.6001 8.39995 5.7001C7.99995 6.1001 7.49996 6.50009 7.09996 6.90009C5.39996 8.60009 4.09995 10.5001 2.99995 12.5001C1.89995 14.6001 1.19996 16.8001 0.799957 19.1001C0.399957 21.4001 0.299951 23.7001 0.199951 26.1001C0.199951 27.2001 0.199951 28.2001 0.199951 29.3001C0.199951 30.6001 0.199951 31.8001 0.199951 33.1001V50.4001V72.8001C0.199951 74.1001 0.199951 75.3001 0.199951 76.6001C0.199951 77.7001 0.199951 78.7001 0.199951 79.8001C0.299951 82.1001 0.399957 84.5001 0.799957 86.8001C1.19996 89.1001 1.89995 91.3001 2.99995 93.4001C4.09995 95.5001 5.39996 97.4001 7.09996 99.0001C8.79996 100.7 10.7 102 12.7 103.1C14.8 104.2 17 104.9 19.3 105.3C21.6 105.7 23.9 105.9 26.3 105.9C27.4 105.9 28.4 105.9 29.5 105.9C30.8 105.9 32 105.9 33.3 105.9H73C74.3 105.9 75.5 105.9 76.8 105.9C77.9 105.9 78.9 105.9 80 105.9C82.3 105.8 84.7 105.7 87 105.3C89.3 104.9 91.5 104.2 93.6 103.1C95.7 102 97.6 100.7 99.2 99.0001C100.9 97.3001 102.2 95.4001 103.3 93.4001C104.4 91.3001 105.1 89.1001 105.5 86.8001C105.9 84.5001 106.1 82.2001 106.1 79.8001C106.1 78.7001 106.1 77.7001 106.1 76.6001C106.1 75.3001 106.1 74.1001 106.1 72.8001V33.1001C106.1 31.9001 106.1 30.7001 106.1 29.4001Z" fill="#F05138"/>
<path d="M86.5 54.4C86.6 54 86.7 53.6 86.8 53.2C91.2 35.7 80.5 14.9 62.3 4C70.3 14.8 73.8 27.9 70.7 39.3C70.4 40.3 70.1 41.3 69.7 42.3C69.3 42 68.8 41.7 68.1 41.4C68.1 41.4 50 30.2 30.4 10.5C29.9 10 40.9 26.2 53.3 39.3C47.4 36 31.1 24.1 20.7 14.7C22 16.8 23.5 18.9 25.1 20.8C33.7 31.8 45 45.3 58.5 55.7C49 61.5 35.6 62 22.3 55.7C19 54.2 15.9 52.3 13 50.2C18.6 59.2 27.3 67 37.9 71.6C50.5 77 63.1 76.7 72.4 71.7C72.4 71.7 72.5 71.7 72.5 71.6C72.9 71.4 73.3 71.1 73.7 70.9C78.2 68.6 87 66.3 91.8 75.5C93.2 77.6 95.7 65.6 86.5 54.4Z" fill="white"/>
<path d="M19.616 84.536V85.856H18.464V92H16.88V88.208L17.18 88.724C17.02 88.524 16.872 88.372 16.736 88.268C16.608 88.156 16.484 88.1 16.364 88.1C16.268 88.1 16.18 88.128 16.1 88.184C16.02 88.24 15.924 88.352 15.812 88.52C15.7 88.688 15.536 88.944 15.32 89.288C15.096 89.64 14.884 89.928 14.684 90.152C14.484 90.368 14.276 90.524 14.06 90.62C13.852 90.716 13.608 90.764 13.328 90.764C13.088 90.764 12.856 90.724 12.632 90.644C12.408 90.564 12.188 90.424 11.972 90.224C11.764 90.016 11.552 89.724 11.336 89.348L12.44 88.664C12.6 88.92 12.736 89.104 12.848 89.216C12.96 89.32 13.092 89.372 13.244 89.372C13.348 89.372 13.444 89.348 13.532 89.3C13.628 89.252 13.736 89.144 13.856 88.976C13.984 88.8 14.144 88.528 14.336 88.16L14.636 87.848C14.852 87.448 15.056 87.168 15.248 87.008C15.44 86.848 15.676 86.768 15.956 86.768C16.172 86.768 16.364 86.82 16.532 86.924C16.708 87.02 16.904 87.172 17.12 87.38L16.928 87.428C16.92 87.276 16.908 87.12 16.892 86.96C16.884 86.792 16.88 86.628 16.88 86.468V85.856H10.88V84.536H19.616ZM13.904 89.048C13.832 88.552 13.756 88.16 13.676 87.872C13.596 87.576 13.464 87.348 13.28 87.188C13.088 87.02 12.832 86.896 12.512 86.816C12.192 86.728 11.788 86.656 11.3 86.6L11.744 85.22L12.596 85.652C13.052 85.732 13.42 85.828 13.7 85.94C13.98 86.052 14.2 86.196 14.36 86.372C14.52 86.54 14.636 86.756 14.708 87.02C14.78 87.276 14.832 87.592 14.864 87.968L13.904 89.048ZM15.8241 95.192C15.5521 95.192 15.2721 95.14 14.9841 95.036C14.6881 94.94 14.4401 94.784 14.2401 94.568C14.0401 94.352 13.9401 94.064 13.9401 93.704C13.9401 93.264 14.1081 92.912 14.4441 92.648C14.7721 92.384 15.2521 92.252 15.8841 92.252C16.4601 92.252 16.9961 92.324 17.4921 92.468C17.9881 92.62 18.4841 92.844 18.9801 93.14C19.4761 93.436 20.0121 93.808 20.5881 94.256L19.7361 95.252C19.2721 94.828 18.8281 94.472 18.4041 94.184C17.9801 93.896 17.5761 93.68 17.1921 93.536C16.8081 93.392 16.4441 93.32 16.1001 93.32C15.8521 93.32 15.6761 93.36 15.5721 93.44C15.4601 93.52 15.4041 93.624 15.4041 93.752C15.4041 93.896 15.4521 94 15.5481 94.064C15.6441 94.128 15.7761 94.16 15.9441 94.16C16.1441 94.16 16.3081 94.112 16.4361 94.016C16.5561 93.92 16.6481 93.796 16.7121 93.644C16.7761 93.5 16.8201 93.344 16.8441 93.176C16.8681 93.016 16.8801 92.864 16.8801 92.72V91.808H18.4641V92.396C18.4641 92.652 18.4361 92.94 18.3801 93.26C18.3161 93.58 18.1961 93.884 18.0201 94.172C17.8361 94.468 17.5681 94.712 17.2161 94.904C16.8641 95.096 16.4001 95.192 15.8241 95.192ZM23.7441 84.536C23.7361 84.288 23.6721 84.112 23.5521 84.008C23.4321 83.896 23.2201 83.84 22.9161 83.84H22.2081C21.6001 83.84 21.1041 83.784 20.7201 83.672C20.3441 83.552 20.0481 83.372 19.8321 83.132C19.6801 82.964 19.5681 82.768 19.4961 82.544C19.4321 82.312 19.4001 82.048 19.4001 81.752C19.4001 81.632 19.4041 81.524 19.4121 81.428C19.4201 81.324 19.4361 81.2 19.4601 81.056L20.9601 81.152C20.9521 81.224 20.9441 81.288 20.9361 81.344C20.9361 81.4 20.9361 81.452 20.9361 81.5C20.9361 81.668 20.9521 81.82 20.9841 81.956C21.0241 82.084 21.0881 82.192 21.1761 82.28C21.2641 82.36 21.3761 82.42 21.5121 82.46C21.6481 82.5 21.8681 82.52 22.1721 82.52H22.9281C23.4001 82.52 23.7721 82.556 24.0441 82.628C24.3241 82.7 24.5601 82.828 24.7521 83.012C24.9041 83.164 25.0201 83.364 25.1001 83.612C25.1881 83.852 25.2361 84.16 25.2441 84.536H23.7441ZM22.6521 86.18C23.3881 86.18 23.9721 86.292 24.4041 86.516C24.8441 86.732 25.1601 87.008 25.3521 87.344C25.5441 87.68 25.6401 88.024 25.6401 88.376C25.6401 89.032 25.4321 89.536 25.0161 89.888C24.6081 90.232 24.0281 90.464 23.2761 90.584L23.0001 90.092C23.4001 90.196 23.7961 90.324 24.1881 90.476C24.5801 90.628 24.9681 90.808 25.3521 91.016C25.7441 91.224 26.1281 91.46 26.5041 91.724L25.6641 92.84C25.2881 92.568 24.8881 92.316 24.4641 92.084C24.0481 91.852 23.6041 91.644 23.1321 91.46C22.6681 91.268 22.1801 91.1 21.6681 90.956C21.1561 90.812 20.6161 90.696 20.0481 90.608L20.3121 89.348C20.5921 89.42 20.8641 89.476 21.1281 89.516C21.4001 89.556 21.6721 89.576 21.9441 89.576C22.4561 89.576 22.8641 89.528 23.1681 89.432C23.4721 89.328 23.6921 89.188 23.8281 89.012C23.9721 88.836 24.0441 88.628 24.0441 88.388C24.0441 88.1 23.9321 87.868 23.7081 87.692C23.4921 87.516 23.1841 87.428 22.7841 87.428C22.5521 87.428 22.3641 87.448 22.2201 87.488C22.0841 87.528 21.9841 87.592 21.9201 87.68C21.8641 87.76 21.8361 87.86 21.8361 87.98C21.8361 88.02 21.8441 88.068 21.8601 88.124C21.8761 88.18 21.8921 88.228 21.9081 88.268L20.4201 88.484C20.3721 88.364 20.3321 88.228 20.3001 88.076C20.2681 87.916 20.2521 87.768 20.2521 87.632C20.2521 87.344 20.3481 87.092 20.5401 86.876C20.7321 86.652 21.0081 86.48 21.3681 86.36C21.7281 86.24 22.1561 86.18 22.6521 86.18ZM21.2361 86.864C21.1961 86.6 21.0761 86.372 20.8761 86.18C20.6761 85.988 20.3881 85.848 20.0121 85.76L20.9241 85.232L21.4761 85.364C21.9241 85.548 22.2481 85.752 22.4481 85.976C22.6481 86.2 22.7641 86.484 22.7961 86.828L21.2361 86.864ZM26.4921 84.536V85.856H19.3761V84.536H26.4921ZM37.1267 84.536V85.856H28.3187L28.4747 85.772C28.7547 85.852 29.0147 85.956 29.2547 86.084C29.5027 86.212 29.7307 86.356 29.9387 86.516C30.1547 86.668 30.3507 86.824 30.5267 86.984L30.6707 88.04C30.4467 88.128 30.2187 88.224 29.9867 88.328C29.7547 88.432 29.5267 88.54 29.3027 88.652C29.0787 88.764 28.8627 88.88 28.6547 89L28.6427 88.928C28.9307 88.968 29.2587 89.052 29.6267 89.18C30.0027 89.308 30.3707 89.476 30.7307 89.684C31.0987 89.884 31.4147 90.12 31.6787 90.392C31.6707 90.256 31.6627 90.124 31.6547 89.996C31.6547 89.86 31.6547 89.72 31.6547 89.576V86.18H32.2067C32.7507 86.18 33.2427 86.212 33.6827 86.276C34.1227 86.34 34.5227 86.452 34.8827 86.612C35.2427 86.764 35.5747 86.98 35.8787 87.26C36.1347 87.484 36.3227 87.74 36.4427 88.028C36.5627 88.308 36.6227 88.6 36.6227 88.904C36.6227 89.168 36.5667 89.42 36.4547 89.66C36.3507 89.9 36.1667 90.096 35.9027 90.248C35.6387 90.4 35.2707 90.476 34.7987 90.476C34.6307 90.476 34.4747 90.472 34.3307 90.464C34.1947 90.448 34.0627 90.428 33.9347 90.404L33.9947 89.084C34.0347 89.092 34.0827 89.1 34.1387 89.108C34.2027 89.108 34.2827 89.108 34.3787 89.108C34.6667 89.108 34.8547 89.06 34.9427 88.964C35.0307 88.86 35.0747 88.736 35.0747 88.592C35.0747 88.36 34.9307 88.14 34.6427 87.932C34.3547 87.724 33.8867 87.592 33.2387 87.536V92H31.6547C31.3427 91.608 30.9707 91.276 30.5387 91.004C30.1147 90.724 29.6347 90.5 29.0987 90.332C28.5627 90.156 27.9707 90.024 27.3227 89.936L26.7587 88.58C26.9827 88.444 27.2147 88.308 27.4547 88.172C27.7027 88.036 27.9587 87.9 28.2227 87.764C28.4867 87.62 28.7507 87.484 29.0147 87.356C28.6787 87.164 28.3147 86.996 27.9227 86.852C27.5387 86.708 27.1187 86.6 26.6627 86.528L27.1067 85.532L27.5627 85.856H26.2667V84.536H37.1267ZM44.2399 84.536V85.856H39.5599V89.372C39.5599 89.644 39.5759 89.844 39.6079 89.972C39.6399 90.1 39.6879 90.196 39.7519 90.26C39.8639 90.38 40.0479 90.44 40.3039 90.44C40.5199 90.44 40.7279 90.396 40.9279 90.308C41.1279 90.212 41.3319 90.064 41.5399 89.864C41.7159 89.704 41.8519 89.532 41.9479 89.348C42.0439 89.164 42.0919 88.976 42.0919 88.784C42.0919 88.632 42.0439 88.508 41.9479 88.412C41.8519 88.316 41.6959 88.268 41.4799 88.268C41.3759 88.268 41.2799 88.272 41.1919 88.28C41.1119 88.288 41.0359 88.3 40.9639 88.316L40.7479 87.02C40.9239 86.98 41.0999 86.948 41.2759 86.924C41.4519 86.9 41.6559 86.888 41.8879 86.888C42.3119 86.888 42.6519 86.96 42.9079 87.104C43.1639 87.248 43.3519 87.44 43.4719 87.68C43.5919 87.92 43.6519 88.192 43.6519 88.496C43.6519 88.936 43.5599 89.348 43.3759 89.732C43.1919 90.108 42.9479 90.448 42.6439 90.752C42.3239 91.064 41.9559 91.312 41.5399 91.496C41.1239 91.672 40.6799 91.76 40.2079 91.76C39.7759 91.76 39.4399 91.72 39.1999 91.64C38.9599 91.56 38.7559 91.444 38.5879 91.292C38.4199 91.148 38.2759 90.936 38.1559 90.656C38.0359 90.376 37.9759 89.944 37.9759 89.36V85.856H36.8839V84.536H44.2399ZM41.5639 84.536C41.5559 84.288 41.4919 84.112 41.3719 84.008C41.2519 83.896 41.0399 83.84 40.7359 83.84H39.8359C39.2279 83.84 38.7319 83.784 38.3479 83.672C37.9719 83.552 37.6759 83.372 37.4599 83.132C37.3079 82.964 37.1959 82.768 37.1239 82.544C37.0599 82.312 37.0279 82.048 37.0279 81.752C37.0279 81.632 37.0319 81.524 37.0399 81.428C37.0479 81.324 37.0639 81.2 37.0879 81.056L38.5879 81.152C38.5799 81.224 38.5719 81.288 38.5639 81.344C38.5639 81.4 38.5639 81.452 38.5639 81.5C38.5639 81.668 38.5799 81.82 38.6119 81.956C38.6519 82.084 38.7159 82.192 38.8039 82.28C38.8919 82.36 39.0039 82.42 39.1399 82.46C39.2759 82.5 39.4959 82.52 39.7999 82.52H40.7479C41.2199 82.52 41.5919 82.556 41.8639 82.628C42.1439 82.7 42.3799 82.828 42.5719 83.012C42.7239 83.164 42.8399 83.364 42.9199 83.612C43.0079 83.852 43.0559 84.16 43.0639 84.536H41.5639ZM56.1058 84.536V85.856H51.9298V87.404C51.9298 87.524 51.9498 87.628 51.9898 87.716C52.0298 87.796 52.1138 87.836 52.2418 87.836C52.3458 87.836 52.4578 87.8 52.5778 87.728C52.6978 87.648 52.8178 87.54 52.9378 87.404C53.0658 87.26 53.1938 87.1 53.3218 86.924L54.7258 86.66C54.9978 87.052 55.2018 87.448 55.3378 87.848C55.4738 88.24 55.5418 88.664 55.5418 89.12C55.5418 89.624 55.4178 90.076 55.1698 90.476C54.9298 90.868 54.5658 91.18 54.0778 91.412C53.5978 91.644 53.0018 91.76 52.2898 91.76C51.7618 91.76 51.2538 91.684 50.7658 91.532C50.2778 91.38 49.8178 91.124 49.3858 90.764C48.9618 90.396 48.5698 89.896 48.2098 89.264C47.8578 88.624 47.5498 87.824 47.2858 86.864L48.7858 86.444C49.0498 87.396 49.3498 88.164 49.6858 88.748C50.0218 89.324 50.3938 89.744 50.8018 90.008C51.2178 90.264 51.6698 90.392 52.1578 90.392C52.7338 90.392 53.1778 90.264 53.4898 90.008C53.8098 89.744 53.9698 89.38 53.9698 88.916C53.9698 88.604 53.9138 88.348 53.8018 88.148C53.6898 87.948 53.5618 87.76 53.4178 87.584L54.6418 87.488C54.3538 87.872 54.0618 88.188 53.7658 88.436C53.4698 88.684 53.1698 88.868 52.8658 88.988C52.5698 89.108 52.2618 89.168 51.9418 89.168C51.6858 89.168 51.4578 89.132 51.2578 89.06C51.0578 88.98 50.8898 88.864 50.7538 88.712C50.6178 88.56 50.5138 88.364 50.4418 88.124C50.3778 87.884 50.3458 87.576 50.3458 87.2V85.856H46.9737V84.536H56.1058ZM66.3923 84.536V85.856H62.4803V86.576L62.5043 87.068V92H60.9203C60.6243 91.568 60.2643 91.188 59.8403 90.86C59.4243 90.532 58.9603 90.26 58.4483 90.044C57.9363 89.82 57.3803 89.66 56.7803 89.564L56.1803 88.148C56.9163 87.74 57.7203 87.348 58.5923 86.972C59.4723 86.588 60.3363 86.284 61.1843 86.06L60.9563 86.408V85.856H55.8683V84.536H66.3923ZM60.9203 87.212L61.1723 87.476C60.8203 87.58 60.4803 87.692 60.1523 87.812C59.8323 87.932 59.5123 88.064 59.1923 88.208C58.8723 88.344 58.5403 88.496 58.1963 88.664C58.5243 88.728 58.8643 88.84 59.2163 89C59.5763 89.152 59.9243 89.352 60.2603 89.6C60.6043 89.848 60.9123 90.136 61.1843 90.464L60.9683 90.596C60.9603 90.452 60.9483 90.292 60.9323 90.116C60.9243 89.94 60.9203 89.752 60.9203 89.552V87.212ZM65.8883 88.904C65.8883 89.168 65.8323 89.42 65.7203 89.66C65.6163 89.9 65.4323 90.096 65.1683 90.248C64.9043 90.4 64.5363 90.476 64.0643 90.476C63.8963 90.476 63.7403 90.472 63.5963 90.464C63.4603 90.448 63.3323 90.428 63.2123 90.404L63.2603 89.084C63.3003 89.092 63.3483 89.1 63.4043 89.108C63.4683 89.108 63.5483 89.108 63.6443 89.108C63.9323 89.108 64.1203 89.06 64.2083 88.964C64.2963 88.86 64.3403 88.736 64.3403 88.592C64.3403 88.32 64.1683 88.08 63.8243 87.872C63.4803 87.664 62.9763 87.504 62.3123 87.392V86.084C62.9683 86.172 63.5643 86.34 64.1003 86.588C64.6443 86.828 65.0763 87.144 65.3963 87.536C65.7243 87.92 65.8883 88.376 65.8883 88.904ZM76.9219 84.536V85.856H75.7699V92H74.1859C73.8899 91.568 73.5299 91.188 73.1059 90.86C72.6899 90.532 72.2259 90.26 71.7139 90.044C71.2019 89.82 70.6459 89.66 70.0459 89.564L69.4459 88.148C70.1819 87.74 70.9859 87.348 71.8579 86.972C72.7379 86.588 73.6019 86.284 74.4499 86.06L74.2339 86.456V85.856H69.1339V84.536H76.9219ZM74.1859 87.212L74.4379 87.476C73.9099 87.628 73.4099 87.804 72.9379 88.004C72.4739 88.196 71.9819 88.416 71.4619 88.664C71.7899 88.728 72.1299 88.84 72.4819 89C72.8419 89.152 73.1899 89.352 73.5259 89.6C73.8699 89.848 74.1779 90.136 74.4499 90.464L74.2219 90.596C74.2139 90.412 74.2059 90.228 74.1979 90.044C74.1899 89.86 74.1859 89.68 74.1859 89.504V87.212ZM80.5688 84.536V85.856H79.4168V92H77.8328V86.672C77.7368 86.424 77.6008 86.228 77.4248 86.084C77.2488 85.932 77.0208 85.856 76.7408 85.856H76.6808V84.536H76.9208C77.1048 84.536 77.2768 84.584 77.4368 84.68C77.5968 84.776 77.7448 84.98 77.8808 85.292C77.8728 85.252 77.8608 85.16 77.8448 85.016C77.8368 84.872 77.8328 84.748 77.8328 84.644V83.744H79.1288L79.4048 84.536H80.5688ZM82.1493 88.184C82.6613 88.488 83.1333 88.84 83.5653 89.24C83.9973 89.632 84.3893 90.056 84.7413 90.512C85.0933 90.968 85.4093 91.44 85.6893 91.928L84.4893 92.564C84.1933 92.14 83.8893 91.744 83.5773 91.376C83.2653 91.008 82.9133 90.656 82.5213 90.32C82.1373 89.984 81.6893 89.664 81.1773 89.36L82.1493 88.184ZM81.2133 86.312C81.2133 85.96 81.2933 85.652 81.4533 85.388C81.6213 85.124 81.8453 84.916 82.1253 84.764C82.4053 84.612 82.7213 84.536 83.0733 84.536C83.4253 84.536 83.7413 84.612 84.0213 84.764C84.3013 84.916 84.5213 85.124 84.6813 85.388C84.8493 85.652 84.9333 85.96 84.9333 86.312C84.9333 86.664 84.8493 86.976 84.6813 87.248C84.5213 87.512 84.3013 87.72 84.0213 87.872C83.7413 88.024 83.4253 88.1 83.0733 88.1C82.7213 88.1 82.4053 88.028 82.1253 87.884C81.8453 87.732 81.6213 87.52 81.4533 87.248C81.2933 86.976 81.2133 86.664 81.2133 86.312ZM82.4253 86.312C82.4253 86.504 82.4853 86.664 82.6053 86.792C82.7333 86.912 82.8893 86.972 83.0733 86.972C83.2573 86.972 83.4093 86.912 83.5293 86.792C83.6573 86.664 83.7213 86.504 83.7213 86.312C83.7213 86.128 83.6573 85.976 83.5293 85.856C83.4093 85.728 83.2573 85.664 83.0733 85.664C82.8893 85.664 82.7333 85.728 82.6053 85.856C82.4853 85.976 82.4253 86.128 82.4253 86.312ZM95.139 84.536V85.856H93.987V92H92.403V88.22L92.727 88.904C92.599 88.672 92.447 88.472 92.271 88.304C92.095 88.136 91.895 88.052 91.671 88.052C91.591 88.052 91.499 88.072 91.395 88.112C91.299 88.152 91.215 88.228 91.143 88.34C91.079 88.452 91.047 88.616 91.047 88.832C91.047 88.904 91.051 88.972 91.059 89.036C91.067 89.092 91.075 89.152 91.083 89.216L89.727 89.3C89.687 89.036 89.607 88.808 89.487 88.616C89.375 88.416 89.231 88.264 89.055 88.16C88.879 88.056 88.667 88.004 88.419 88.004C88.275 88.004 88.147 88.032 88.035 88.088C87.923 88.136 87.835 88.208 87.771 88.304C87.715 88.4 87.687 88.512 87.687 88.64C87.687 88.928 87.799 89.152 88.023 89.312C88.255 89.472 88.535 89.604 88.863 89.708L88.407 91.052C87.927 90.916 87.511 90.736 87.159 90.512C86.807 90.28 86.535 90.004 86.343 89.684C86.151 89.364 86.055 88.996 86.055 88.58C86.055 88.18 86.151 87.836 86.343 87.548C86.543 87.26 86.807 87.04 87.135 86.888C87.463 86.728 87.823 86.648 88.215 86.648C88.687 86.648 89.083 86.728 89.403 86.888C89.723 87.04 90.055 87.292 90.399 87.644L90.183 87.56C90.271 87.28 90.427 87.068 90.651 86.924C90.875 86.78 91.111 86.708 91.359 86.708C91.639 86.708 91.887 86.764 92.103 86.876C92.327 86.988 92.535 87.14 92.727 87.332L92.463 87.524C92.447 87.348 92.431 87.172 92.415 86.996C92.407 86.82 92.403 86.644 92.403 86.468V85.856H85.587V84.536H95.139ZM98.7914 84.536V85.856H97.6394V92H96.0554V86.672C95.9594 86.424 95.8234 86.228 95.6474 86.084C95.4714 85.932 95.2434 85.856 94.9634 85.856H94.9034V84.536H95.1434C95.3274 84.536 95.4994 84.584 95.6594 84.68C95.8194 84.776 95.9674 84.98 96.1034 85.292C96.0954 85.252 96.0834 85.16 96.0674 85.016C96.0594 84.872 96.0554 84.748 96.0554 84.644V83.744H97.3514L97.6274 84.536H98.7914Z" fill="white"/>
</g>
<defs>
<clipPath id="clip0_202_208">
<rect width="106.1" height="106.1" fill="white"/>
</clipPath>
</defs>
</svg>
